<svg id="Layer_1" data-name="Layer 1" xmlns="http://www.w3.org/2000/svg" viewBox="0 0 488.79 406.08"><defs><style>.cls-1,.cls-2{fill:#fff200;}.cls-2{stroke:#000;stroke-miterlimit:10;stroke-width:10px;}</style></defs><path d="M634.3,384c84.78,84.78,113.74,377,0,339.12-127.17-42.39-211.95-42.39-339.12,0-113.74,37.91-84.78-254.34,0-339.12S549.52,299.25,634.3,384Z" transform="translate(-220.34 -320.45)"/><path class="cls-1" d="M532.27,468.38c32.32,33.54,41.48,147.27-2.43,131.72-49.1-17.37-82-18-131.73-2.42C353.66,611.59,367,498.27,400.54,466S499.94,434.84,532.27,468.38Z" transform="translate(-220.34 -320.45)"/><path class="cls-2" d="M430.13,481.78a48.77,48.77,0,0,0,69,0c44-47.58-21.44-112.93-69-69A48.78,48.78,0,0,0,430.13,481.78Z" transform="translate(-220.34 -320.45)"/></svg>